<?xml version="1.0" encoding="utf-8"?>
<!-- Generator: Adobe Illustrator 19.1.0, SVG Export Plug-In . SVG Version: 6.00 Build 0)  -->
<svg version="1.1" id="Layer_1" xmlns="http://www.w3.org/2000/svg" xmlns:xlink="http://www.w3.org/1999/xlink" x="0px" y="0px"
	 viewBox="0 0 64 64" enable-background="new 0 0 64 64" xml:space="preserve">
<path id="Phone" d="M54.3810272,55.1615448l-4.214798-7.9286995c-1.357502-2.5517006-4.5381012-3.5205002-7.089901-2.1669998
	l-2.1054993,1.1200981c-1.1357002,0.6044998-2.4393997,0.7276001-3.669899,0.3536034
	c-1.2304001-0.3770027-2.2402-1.2090034-2.8437004-2.3457031L24.1720295,24.8539448
	c-0.6191006-1.1640987-0.7479992-2.5-0.3633003-3.7607002c0.3799-1.2432003,1.2559013-2.3057003,2.4043007-2.9151001
	l1.9570999-1.0429001c1.2469997-0.662199,2.1611004-1.7704992,2.5751991-3.1210995
	c0.4121017-1.3515997,0.2744007-2.7823-0.3886986-4.0274L26.1613293,2.099045
	c-0.4883003-0.9188999-1.3046989-1.5917999-2.2988987-1.8964999c-0.9941006-0.3017-2.0468006-0.2021-2.9658012,0.2862
	l-3.9169998,2.0839999c-2.3690996,1.2607-4.3007002,3.2920001-5.4393997,5.7196999l-1.2040997,2.5674
	c-1.6621008,3.5448999-1.5567007,7.7265005,0.2811995,11.1845007l18.5224991,34.8290977
	c1.8467007,3.472702,5.2704983,5.9082031,9.1572018,6.5147018l2.7734985,0.4325981
	c0.6297989,0.0986023,1.267498,0.1475029,1.9043007,0.1475029c2.0379982,0,4.0741959-0.4990997,5.8817978-1.4600029
	l3.9140968-2.0819969c0.9199028-0.4873009,1.5937004-1.3047028,1.8973999-2.3008003
	C54.9718285,57.1313438,54.870327,56.0785446,54.3810272,55.1615448z M52.8146286,57.5600433
	c-0.1523018,0.5-0.4902,0.9091034-0.9512024,1.1543007l-3.9169998,2.0839005
	c-2.0038986,1.0644989-4.3378983,1.4570999-6.5760956,1.1084023l-2.7735023-0.4326019
	c-3.2889977-0.5126991-6.1844978-2.5732002-7.7460995-5.5107002L12.32833,21.1342449
	c-1.5537004-2.9218998-1.6426001-6.4560995-0.2383003-9.4521999l1.2040997-2.5672998
	c0.9619007-2.0507998,2.5937004-3.7666998,4.5957003-4.8311L21.80583,2.199645
	c0.2880993-0.1522999,0.6005993-0.2304999,0.9169998-0.2304999c0.1914005,0,0.3848,0.0293,0.5732002,0.087
	c0.4990997,0.1522999,0.9092007,0.4902,1.1543007,0.9521l4.1953983,7.8877001
	c0.4208012,0.7890997,0.5078011,1.6952991,0.2460003,2.5517998c-0.2616997,0.8554001-0.8407993,1.5576-1.6317997,1.9775
	l-1.9559994,1.0419998c-1.5986996,0.8486004-2.8184013,2.3281002-3.3486996,4.0604992
	c-0.5351009,1.7559013-0.3554001,3.6153011,0.5058994,5.2364006l10.2851009,19.3387985
	c0.8466988,1.5938034,2.2626991,2.7618027,3.9883003,3.2891006c1.7265968,0.5254021,3.5536995,0.3516006,5.1464996-0.4950981
	l2.1054993-1.1201019c0.780201-0.4141006,1.6747971-0.4990997,2.517498-0.2421989
	c0.8437996,0.2578011,1.5372009,0.8291016,1.9512024,1.6083984l4.2157974,7.9287033c0,0,0,0,0.0009995,0
	C52.9132309,56.5248451,52.9650269,57.0668449,52.8146286,57.5600433z"/>
</svg>
